<svg xmlns="http://www.w3.org/2000/svg" viewBox="0 0 128 176" shape-rendering="crispEdges">
  <rect width="128" height="176" fill="none"/>

  <g fill="#5b566f">
    <rect x="48" y="8" width="20" height="4"/>
    <rect x="40" y="12" width="36" height="4"/>
    <rect x="36" y="16" width="44" height="4"/>
    <rect x="36" y="20" width="16" height="4"/>
    <rect x="64" y="20" width="20" height="4"/>
    <rect x="32" y="24" width="12" height="4"/>
    <rect x="68" y="24" width="12" height="4"/>
    <rect x="32" y="28" width="8" height="4"/>
    <rect x="72" y="28" width="8" height="4"/>
    <rect x="36" y="32" width="4" height="4"/>
    <rect x="72" y="32" width="4" height="4"/>
  </g>

  <g fill="#b5aed4">
    <rect x="44" y="12" width="20" height="4"/>
    <rect x="48" y="16" width="20" height="4"/>
    <rect x="48" y="20" width="16" height="4"/>
    <rect x="44" y="24" width="24" height="4"/>
    <rect x="44" y="28" width="20" height="4"/>
  </g>

  <g fill="#ffffff">
    <rect x="40" y="24" width="28" height="4"/>
    <rect x="36" y="28" width="36" height="4"/>
    <rect x="36" y="32" width="36" height="4"/>
    <rect x="40" y="36" width="28" height="4"/>
    <rect x="44" y="40" width="20" height="4"/>
    <rect x="48" y="44" width="12" height="4"/>
    <rect x="48" y="56" width="8" height="4"/>
    <rect x="20" y="104" width="8" height="4"/>
    <rect x="20" y="108" width="8" height="4"/>
    <rect x="88" y="100" width="8" height="4"/>
    <rect x="88" y="104" width="8" height="4"/>
    <rect x="40" y="152" width="8" height="4"/>
    <rect x="72" y="156" width="8" height="4"/>
  </g>

  <g fill="#f7f5ff">
    <rect x="48" y="28" width="12" height="4"/>
    <rect x="44" y="32" width="20" height="4"/>
    <rect x="44" y="36" width="16" height="4"/>
  </g>

  <g fill="#6a6387">
    <rect x="44" y="32" width="4" height="4"/>
    <rect x="60" y="32" width="4" height="4"/>
    <rect x="48" y="40" width="16" height="4"/>
    <rect x="44" y="44" width="24" height="4"/>
    <rect x="44" y="48" width="24" height="4"/>
    <rect x="48" y="52" width="20" height="4"/>
  </g>

  <g fill="#f2efff">
    <rect x="44" y="60" width="36" height="4"/>
    <rect x="40" y="64" width="44" height="4"/>
    <rect x="36" y="68" width="52" height="4"/>
    <rect x="32" y="72" width="24" height="4"/>
    <rect x="68" y="72" width="24" height="4"/>
    <rect x="28" y="76" width="24" height="4"/>
    <rect x="68" y="76" width="28" height="4"/>
    <rect x="28" y="80" width="20" height="4"/>
    <rect x="72" y="80" width="24" height="4"/>
    <rect x="28" y="84" width="16" height="4"/>
    <rect x="72" y="84" width="20" height="4"/>
    <rect x="28" y="88" width="16" height="4"/>
    <rect x="72" y="88" width="20" height="4"/>
    <rect x="28" y="92" width="16" height="4"/>
    <rect x="72" y="92" width="16" height="4"/>
    <rect x="32" y="96" width="12" height="4"/>
    <rect x="72" y="96" width="16" height="4"/>
    <rect x="72" y="100" width="16" height="4"/>
  </g>

  <g fill="#d8d2ee">
    <rect x="52" y="64" width="20" height="4"/>
    <rect x="52" y="68" width="20" height="4"/>
    <rect x="52" y="72" width="20" height="4"/>
    <rect x="52" y="76" width="20" height="4"/>
    <rect x="52" y="80" width="16" height="4"/>
    <rect x="52" y="84" width="16" height="4"/>
    <rect x="52" y="88" width="16" height="4"/>
    <rect x="52" y="92" width="16" height="4"/>
  </g>

  <g fill="#a79fcb">
    <rect x="48" y="64" width="4" height="24"/>
    <rect x="68" y="64" width="4" height="24"/>
    <rect x="48" y="88" width="4" height="16"/>
    <rect x="68" y="88" width="4" height="16"/>
    <rect x="84" y="104" width="8" height="4"/>
    <rect x="88" y="108" width="4" height="4"/>
  </g>

  <g fill="#ffffff">
    <rect x="52" y="88" width="16" height="4"/>
    <rect x="52" y="92" width="16" height="8"/>
    <rect x="52" y="100" width="16" height="20"/>
  </g>

  <g fill="#f7f5ff">
    <rect x="52" y="88" width="16" height="4"/>
  </g>

  <g fill="#8982a5">
    <rect x="52" y="88" width="16" height="4"/>
    <rect x="52" y="116" width="16" height="4"/>
    <rect x="52" y="92" width="4" height="24"/>
    <rect x="64" y="92" width="4" height="24"/>
    <rect x="56" y="104" width="8" height="4"/>
    <rect x="48" y="120" width="24" height="4"/>
  </g>

  <g fill="#d7d3e4">
    <rect x="44" y="120" width="32" height="4"/>
    <rect x="40" y="124" width="36" height="4"/>
    <rect x="40" y="128" width="16" height="4"/>
    <rect x="64" y="128" width="16" height="4"/>
    <rect x="40" y="132" width="16" height="4"/>
    <rect x="64" y="132" width="16" height="4"/>
    <rect x="40" y="136" width="16" height="4"/>
    <rect x="64" y="136" width="16" height="4"/>
    <rect x="40" y="140" width="16" height="4"/>
    <rect x="68" y="140" width="12" height="4"/>
    <rect x="40" y="144" width="12" height="4"/>
    <rect x="68" y="144" width="12" height="4"/>
    <rect x="40" y="148" width="12" height="4"/>
    <rect x="72" y="148" width="8" height="4"/>
  </g>

  <g fill="#b0abc3">
    <rect x="48" y="124" width="4" height="24"/>
    <rect x="68" y="124" width="4" height="24"/>
    <rect x="44" y="132" width="8" height="4"/>
    <rect x="68" y="136" width="8" height="4"/>
  </g>

  <g fill="#8f89a8">
    <rect x="40" y="152" width="16" height="4"/>
    <rect x="68" y="156" width="16" height="4"/>
    <rect x="36" y="156" width="24" height="4"/>
    <rect x="68" y="160" width="24" height="4"/>
    <rect x="36" y="160" width="24" height="4"/>
    <rect x="68" y="164" width="24" height="4"/>
  </g>

  <g fill="#b4afc7">
    <rect x="40" y="160" width="16" height="4"/>
    <rect x="72" y="164" width="16" height="4"/>
  </g>
</svg>
