<svg xmlns="http://www.w3.org/2000/svg" viewBox="0 0 64 64" role="img" aria-labelledby="title">
  <title id="title">Jon Finger brain speed favicon</title>
  <rect x="4" y="4" width="56" height="56" rx="10" fill="#101726" stroke="#f1f5ff" stroke-width="4"/>
  <g shape-rendering="crispEdges">
    <rect x="10" y="18" width="12" height="4" fill="#ffd85f"/>
    <rect x="8" y="26" width="14" height="4" fill="#7af6ff"/>
    <rect x="10" y="34" width="12" height="4" fill="#7af6ff"/>
    <rect x="14" y="42" width="8" height="4" fill="#ffd85f"/>

    <rect x="30" y="14" width="8" height="4" fill="#f1f5ff"/>
    <rect x="26" y="18" width="20" height="4" fill="#f1f5ff"/>
    <rect x="22" y="22" width="28" height="4" fill="#f1f5ff"/>
    <rect x="18" y="26" width="36" height="4" fill="#f1f5ff"/>
    <rect x="18" y="30" width="36" height="4" fill="#f1f5ff"/>
    <rect x="22" y="34" width="28" height="4" fill="#f1f5ff"/>
    <rect x="26" y="38" width="20" height="4" fill="#f1f5ff"/>
    <rect x="30" y="42" width="12" height="4" fill="#f1f5ff"/>
    <rect x="30" y="46" width="4" height="6" fill="#f1f5ff"/>
    <rect x="38" y="46" width="4" height="6" fill="#f1f5ff"/>

    <rect x="30" y="18" width="12" height="4" fill="#ff7fb4"/>
    <rect x="26" y="22" width="20" height="4" fill="#ff7fb4"/>
    <rect x="22" y="26" width="28" height="4" fill="#ff7fb4"/>
    <rect x="22" y="30" width="28" height="4" fill="#ff7fb4"/>
    <rect x="26" y="34" width="20" height="4" fill="#ff7fb4"/>
    <rect x="30" y="38" width="12" height="4" fill="#ff7fb4"/>
    <rect x="34" y="42" width="4" height="4" fill="#ff7fb4"/>

    <rect x="34" y="18" width="4" height="20" fill="#f1f5ff"/>
    <rect x="26" y="26" width="4" height="8" fill="#f1f5ff"/>
    <rect x="42" y="26" width="4" height="8" fill="#f1f5ff"/>
    <rect x="30" y="34" width="4" height="4" fill="#f1f5ff"/>
  </g>
</svg>
